  0
SECTION
  2
HEADER
  9
$ACADVER
  1
AC1009
  9
$DWGCODEPAGE
  3
ansi_1252
  9
$INSBASE
 10
0.0
 20
0.0
 30
0.0
  9
$EXTMIN
 10
0.0
 20
-0.0000000000000054
 30
-0.000000000000005
  9
$EXTMAX
 10
196.0
 20
82.0
 30
0.0
  9
$LIMMIN
 10
0.0
 20
0.0
  9
$LIMMAX
 10
420.0
 20
297.0
  9
$ORTHOMODE
 70
     0
  9
$REGENMODE
 70
     1
  9
$FILLMODE
 70
     1
  9
$QTEXTMODE
 70
     0
  9
$MIRRTEXT
 70
     1
  9
$DRAGMODE
 70
     2
  9
$LTSCALE
 40
1.0
  9
$OSMODE
 70
    37
  9
$ATTMODE
 70
     1
  9
$TEXTSIZE
 40
2.5
  9
$TRACEWID
 40
1.0
  9
$TEXTSTYLE
  7
STANDARD
  9
$CLAYER
  8
0
  9
$CELTYPE
  6
BYLAYER
  9
$CECOLOR
 62
   256
  9
$DIMSCALE
 40
1.0
  9
$DIMASZ
 40
2.5
  9
$DIMEXO
 40
0.625
  9
$DIMDLI
 40
3.75
  9
$DIMRND
 40
0.0
  9
$DIMDLE
 40
0.0
  9
$DIMEXE
 40
1.25
  9
$DIMTP
 40
0.0
  9
$DIMTM
 40
0.0
  9
$DIMTXT
 40
2.5
  9
$DIMCEN
 40
2.5
  9
$DIMTSZ
 40
0.0
  9
$DIMTOL
 70
     0
  9
$DIMLIM
 70
     0
  9
$DIMTIH
 70
     1
  9
$DIMTOH
 70
     0
  9
$DIMSE1
 70
     0
  9
$DIMSE2
 70
     0
  9
$DIMTAD
 70
     1
  9
$DIMZIN
 70
     8
  9
$DIMBLK
  1

  9
$DIMASO
 70
     1
  9
$DIMSHO
 70
     1
  9
$DIMPOST
  1
mm
  9
$DIMAPOST
  1

  9
$DIMALT
 70
     0
  9
$DIMALTD
 70
     3
  9
$DIMALTF
 40
0.0393700787401575
  9
$DIMLFAC
 40
1.0
  9
$DIMTOFL
 70
     1
  9
$DIMTVP
 40
0.0
  9
$DIMTIX
 70
     0
  9
$DIMSOXD
 70
     0
  9
$DIMSAH
 70
     0
  9
$DIMBLK1
  1

  9
$DIMBLK2
  1

  9
$DIMSTYLE
  2
ISO-25
  9
$DIMCLRD
 70
     0
  9
$DIMCLRE
 70
     0
  9
$DIMCLRT
 70
     0
  9
$DIMTFAC
 40
1.0
  9
$DIMGAP
 40
0.625
  9
$LUNITS
 70
     2
  9
$LUPREC
 70
     4
  9
$SKETCHINC
 40
1.0
  9
$FILLETRAD
 40
10.0
  9
$AUNITS
 70
     0
  9
$AUPREC
 70
     0
  9
$MENU
  1
.
  9
$ELEVATION
 40
0.0
  9
$PELEVATION
 40
0.0
  9
$THICKNESS
 40
0.0
  9
$LIMCHECK
 70
     0
  9
$CHAMFERA
 40
0.0
  9
$CHAMFERB
 40
0.0
  9
$SKPOLY
 70
     0
  9
$TDCREATE
 40
2459424.407269803
  9
$TDUPDATE
 40
2459424.407269896
  9
$TDINDWG
 40
0.0000000116
  9
$TDUSRTIMER
 40
0.0000000116
  9
$USRTIMER
 70
     1
  9
$ANGBASE
 50
0.0
  9
$ANGDIR
 70
     0
  9
$PDMODE
 70
     0
  9
$PDSIZE
 40
0.0
  9
$PLINEWID
 40
0.0
  9
$COORDS
 70
     1
  9
$SPLFRAME
 70
     0
  9
$SPLINETYPE
 70
     6
  9
$SPLINESEGS
 70
     8
  9
$ATTDIA
 70
     0
  9
$ATTREQ
 70
     1
  9
$HANDLING
 70
     1
  9
$HANDSEED
  5
D4
  9
$SURFTAB1
 70
     6
  9
$SURFTAB2
 70
     6
  9
$SURFTYPE
 70
     6
  9
$SURFU
 70
     6
  9
$SURFV
 70
     6
  9
$UCSNAME
  2

  9
$UCSORG
 10
0.0
 20
0.0
 30
0.0
  9
$UCSXDIR
 10
1.0
 20
0.0
 30
0.0
  9
$UCSYDIR
 10
0.0
 20
1.0
 30
0.0
  9
$PUCSNAME
  2

  9
$PUCSORG
 10
0.0
 20
0.0
 30
0.0
  9
$PUCSXDIR
 10
1.0
 20
0.0
 30
0.0
  9
$PUCSYDIR
 10
0.0
 20
1.0
 30
0.0
  9
$USERI1
 70
     0
  9
$USERI2
 70
     0
  9
$USERI3
 70
     0
  9
$USERI4
 70
     0
  9
$USERI5
 70
     0
  9
$USERR1
 40
0.0
  9
$USERR2
 40
0.0
  9
$USERR3
 40
0.0
  9
$USERR4
 40
0.0
  9
$USERR5
 40
0.0
  9
$WORLDVIEW
 70
     1
  9
$SHADEDGE
 70
     3
  9
$SHADEDIF
 70
    70
  9
$TILEMODE
 70
     1
  9
$MAXACTVP
 70
    64
  9
$PLIMCHECK
 70
     0
  9
$PEXTMIN
 10
1.000000000000000E+20
 20
1.000000000000000E+20
 30
1.000000000000000E+20
  9
$PEXTMAX
 10
-1.000000000000000E+20
 20
-1.000000000000000E+20
 30
-1.000000000000000E+20
  9
$PLIMMIN
 10
0.0
 20
0.0
  9
$PLIMMAX
 10
420.0
 20
297.0
  9
$UNITMODE
 70
     0
  9
$VISRETAIN
 70
     1
  9
$PLINEGEN
 70
     0
  9
$PSLTSCALE
 70
     1
  0
ENDSEC
  0
SECTION
  2
TABLES
  0
TABLE
  2
VPORT
 70
     1
  0
VPORT
  2
*ACTIVE
 70
     0
 10
0.0
 20
0.0
 11
1.0
 21
1.0
 12
98.0
 22
41.0
 13
0.0
 23
0.0
 14
10.0
 24
10.0
 15
10.0
 25
10.0
 16
0.0
 26
0.0
 36
1.0
 17
0.0
 27
0.0
 37
0.0
 40
82.0
 41
2.390243902439024
 42
50.0
 43
0.0
 44
0.0
 50
0.0
 51
0.0
 71
     0
 72
   100
 73
     1
 74
     3
 75
     0
 76
     0
 77
     0
 78
     0
  0
ENDTAB
  0
TABLE
  2
LTYPE
 70
     1
  0
LTYPE
  2
CONTINUOUS
 70
     0
  3
Solid line
 72
    65
 73
     0
 40
0.0
  0
ENDTAB
  0
TABLE
  2
LAYER
 70
     1
  0
LAYER
  2
0
 70
     0
 62
   253
  6
CONTINUOUS
  0
ENDTAB
  0
TABLE
  2
STYLE
 70
     1
  0
STYLE
  2
STANDARD
 70
     0
 40
0.0
 41
1.0
 50
0.0
 71
     0
 42
2.5
  3
txt
  4

  0
ENDTAB
  0
TABLE
  2
VIEW
 70
     0
  0
ENDTAB
  0
TABLE
  2
UCS
 70
     0
  0
ENDTAB
  0
TABLE
  2
APPID
 70
     1
  0
APPID
  2
ACAD
 70
     0
  0
ENDTAB
  0
TABLE
  2
DIMSTYLE
 70
     1
  0
DIMSTYLE
  2
ISO-25
 70
     0
  3

  4

  5

  6

  7

 40
1.0
 41
2.5
 42
0.625
 43
3.75
 44
1.25
 45
0.0
 46
0.0
 47
0.0
 48
0.0
140
2.5
141
2.5
142
0.0
143
0.03937007874016
144
1.0
145
0.0
146
1.0
147
0.625
 71
     0
 72
     0
 73
     0
 74
     0
 75
     0
 76
     0
 77
     1
 78
     8
170
     0
171
     3
172
     1
173
     0
174
     0
175
     0
176
     0
177
     0
178
     0
  0
ENDTAB
  0
ENDSEC
  0
SECTION
  2
BLOCKS
  0
BLOCK
  8
0
  2
$MODEL_SPACE
 70
     0
 10
0.0
 20
0.0
 30
0.0
  3
$MODEL_SPACE
  1

  0
ENDBLK
  5
21
  8
0
  0
BLOCK
 67
     1
  8
0
  2
$PAPER_SPACE
 70
     0
 10
0.0
 20
0.0
 30
0.0
  3
$PAPER_SPACE
  1

  0
ENDBLK
  5
1D
 67
     1
  8
0
  0
ENDSEC
  0
SECTION
  2
ENTITIES
  0
LINE
  5
6E
  8
0
 10
0.0000000000000005
 20
18.0
 30
0.0
 11
0.0000000000000018
 21
64.0
 31
0.0
  0
LINE
  5
6F
  8
0
 10
8.000000000000002
 20
82.0
 30
0.0
 11
188.0
 21
82.0
 31
0.0
  0
LINE
  5
70
  8
0
 10
196.0
 20
64.0
 30
0.0
 11
196.0
 21
18.0
 31
0.0
  0
ARC
  5
71
  8
0
 10
42.88182301210851
 20
41.00999999999998
 30
0.0
 40
19.99999999999998
 50
5.739170477266797
 51
84.26082952273327
  0
ARC
  5
72
  8
0
 10
42.88182301210851
 20
41.00999999999998
 30
0.0
 40
14.99999999999999
 50
7.662255660766067
 51
82.33774433923405
  0
ARC
  5
73
  8
0
 10
42.88182301210851
 20
41.00999999999998
 30
0.0
 40
10.0
 50
11.53695903281548
 51
78.46304096718467
  0
ARC
  5
74
  8
0
 10
42.88182301210851
 20
41.00999999999998
 30
0.0
 40
19.99999999999998
 50
275.7391704772667
 51
354.2608295227332
  0
ARC
  5
75
  8
0
 10
42.88182301210851
 20
41.00999999999998
 30
0.0
 40
14.99999999999999
 50
277.6622556607659
 51
352.337744339234
  0
ARC
  5
76
  8
0
 10
42.88182301210851
 20
41.00999999999998
 30
0.0
 40
10.0
 50
281.5369590328153
 51
348.4630409671846
  0
ARC
  5
77
  8
0
 10
42.88182301210851
 20
41.00999999999998
 30
0.0
 40
19.99999999999998
 50
95.7391704772668
 51
174.2608295227332
  0
ARC
  5
78
  8
0
 10
42.88182301210851
 20
41.00999999999998
 30
0.0
 40
19.99999999999998
 50
185.7391704772668
 51
264.2608295227332
  0
ARC
  5
79
  8
0
 10
42.88182301210851
 20
41.00999999999998
 30
0.0
 40
10.0
 50
101.5369590328155
 51
168.4630409671845
  0
ARC
  5
7A
  8
0
 10
42.88182301210851
 20
41.00999999999998
 30
0.0
 40
10.0
 50
191.5369590328154
 51
258.4630409671845
  0
ARC
  5
7B
  8
0
 10
42.88182301210851
 20
41.00999999999998
 30
0.0
 40
14.99999999999999
 50
97.6622556607661
 51
172.3377443392339
  0
ARC
  5
7C
  8
0
 10
42.88182301210851
 20
41.00999999999998
 30
0.0
 40
14.99999999999999
 50
187.662255660766
 51
262.337744339234
  0
LINE
  5
7D
  8
0
 10
40.88182301210851
 20
60.90974874213238
 30
0.0
 11
40.88182301210851
 21
55.87606874731849
 31
0.0
  0
LINE
  5
7E
  8
0
 10
44.88182301210849
 20
60.90974874213238
 30
0.0
 11
44.88182301210849
 21
55.87606874731849
 31
0.0
  0
LINE
  5
7F
  8
0
 10
57.74789175942701
 20
43.01
 30
0.0
 11
62.7815717542409
 21
43.01
 31
0.0
  0
LINE
  5
80
  8
0
 10
57.74789175942701
 20
39.01000000000001
 30
0.0
 11
62.7815717542409
 21
39.01000000000001
 31
0.0
  0
LINE
  5
81
  8
0
 10
44.88182301210849
 20
21.11025125786762
 30
0.0
 11
44.88182301210849
 21
26.1439312526815
 31
0.0
  0
LINE
  5
82
  8
0
 10
40.88182301210851
 20
26.1439312526815
 30
0.0
 11
40.88182301210851
 21
21.11025125786762
 31
0.0
  0
LINE
  5
83
  8
0
 10
28.01575426479005
 20
39.01000000000003
 30
0.0
 11
22.98207426997614
 21
39.01000000000001
 31
0.0
  0
LINE
  5
84
  8
0
 10
22.98207426997608
 20
43.01
 30
0.0
 11
28.01575426478999
 21
43.01000000000001
 31
0.0
  0
LINE
  5
85
  8
0
 10
40.88182301210851
 20
50.80795897113272
 30
0.0
 11
40.88182301210854
 21
45.59257569495585
 31
0.0
  0
LINE
  5
86
  8
0
 10
44.88182301210849
 20
50.80795897113272
 30
0.0
 11
44.88182301210852
 21
45.59257569495583
 31
0.0
  0
LINE
  5
87
  8
0
 10
52.67978198324124
 20
43.01
 30
0.0
 11
47.46439870706436
 21
43.01
 31
0.0
  0
LINE
  5
88
  8
0
 10
52.67978198324124
 20
39.01000000000001
 30
0.0
 11
47.46439870706436
 21
39.01000000000001
 31
0.0
  0
LINE
  5
89
  8
0
 10
44.88182301210849
 20
31.21204102886727
 30
0.0
 11
44.88182301210849
 21
36.42742430504415
 31
0.0
  0
LINE
  5
8A
  8
0
 10
40.88182301210851
 20
31.21204102886729
 30
0.0
 11
40.88182301210851
 21
36.42742430504416
 31
0.0
  0
LINE
  5
8B
  8
0
 10
33.08386404097582
 20
39.01000000000001
 30
0.0
 11
38.29924731715269
 21
39.01000000000001
 31
0.0
  0
LINE
  5
8C
  8
0
 10
33.08386404097582
 20
43.01
 30
0.0
 11
38.29924731715269
 21
43.01
 31
0.0
  0
ARC
  5
8D
  8
0
 10
42.88182301210851
 20
41.00999999999998
 30
0.0
 40
5.0
 50
293.5781784782016
 51
336.4218215217983
  0
ARC
  5
8E
  8
0
 10
42.88182301210851
 20
41.00999999999998
 30
0.0
 40
5.0
 50
23.57817847820182
 51
66.42182152179812
  0
ARC
  5
8F
  8
0
 10
42.88182301210851
 20
41.00999999999998
 30
0.0
 40
5.0
 50
113.5781784782015
 51
156.4218215217982
  0
ARC
  5
90
  8
0
 10
42.88182301210851
 20
41.00999999999998
 30
0.0
 40
5.0
 50
203.5781784782017
 51
246.4218215217981
  0
ARC
  5
91
  8
0
 10
152.8818230121085
 20
41.00999999999998
 30
0.0
 40
19.99999999999998
 50
5.739170477266797
 51
84.26082952273327
  0
ARC
  5
92
  8
0
 10
152.8818230121085
 20
41.00999999999998
 30
0.0
 40
14.99999999999999
 50
7.662255660766067
 51
82.33774433923405
  0
ARC
  5
93
  8
0
 10
152.8818230121085
 20
41.00999999999998
 30
0.0
 40
10.0
 50
11.53695903281548
 51
78.46304096718467
  0
ARC
  5
94
  8
0
 10
152.8818230121085
 20
41.00999999999998
 30
0.0
 40
19.99999999999998
 50
275.7391704772667
 51
354.2608295227332
  0
ARC
  5
95
  8
0
 10
152.8818230121085
 20
41.00999999999998
 30
0.0
 40
14.99999999999999
 50
277.6622556607659
 51
352.337744339234
  0
ARC
  5
96
  8
0
 10
152.8818230121085
 20
41.00999999999998
 30
0.0
 40
10.0
 50
281.5369590328153
 51
348.4630409671846
  0
ARC
  5
97
  8
0
 10
152.8818230121085
 20
41.00999999999998
 30
0.0
 40
19.99999999999998
 50
95.7391704772668
 51
174.2608295227332
  0
ARC
  5
98
  8
0
 10
152.8818230121085
 20
41.00999999999998
 30
0.0
 40
19.99999999999998
 50
185.7391704772668
 51
264.2608295227332
  0
ARC
  5
99
  8
0
 10
152.8818230121085
 20
41.00999999999998
 30
0.0
 40
10.0
 50
101.5369590328155
 51
168.4630409671845
  0
ARC
  5
9A
  8
0
 10
152.8818230121085
 20
41.00999999999998
 30
0.0
 40
10.0
 50
191.5369590328154
 51
258.4630409671845
  0
ARC
  5
9B
  8
0
 10
152.8818230121085
 20
41.00999999999998
 30
0.0
 40
14.99999999999999
 50
97.6622556607661
 51
172.3377443392339
  0
ARC
  5
9C
  8
0
 10
152.8818230121085
 20
41.00999999999998
 30
0.0
 40
14.99999999999999
 50
187.662255660766
 51
262.337744339234
  0
LINE
  5
9D
  8
0
 10
150.8818230121085
 20
60.90974874213237
 30
0.0
 11
150.8818230121085
 21
55.87606874731848
 31
0.0
  0
LINE
  5
9E
  8
0
 10
154.8818230121085
 20
60.90974874213237
 30
0.0
 11
154.8818230121085
 21
55.87606874731848
 31
0.0
  0
LINE
  5
9F
  8
0
 10
167.747891759427
 20
43.00999999999999
 30
0.0
 11
172.7815717542409
 21
43.00999999999999
 31
0.0
  0
LINE
  5
A0
  8
0
 10
167.747891759427
 20
39.01000000000001
 30
0.0
 11
172.7815717542409
 21
39.01000000000001
 31
0.0
  0
LINE
  5
A1
  8
0
 10
154.8818230121085
 20
21.11025125786762
 30
0.0
 11
154.8818230121085
 21
26.1439312526815
 31
0.0
  0
LINE
  5
A2
  8
0
 10
150.8818230121085
 20
26.1439312526815
 30
0.0
 11
150.8818230121085
 21
21.11025125786762
 31
0.0
  0
LINE
  5
A3
  8
0
 10
138.01575426479
 20
39.01000000000002
 30
0.0
 11
132.9820742699761
 21
39.01000000000001
 31
0.0
  0
LINE
  5
A4
  8
0
 10
132.9820742699761
 20
43.00999999999999
 30
0.0
 11
138.01575426479
 21
43.01000000000001
 31
0.0
  0
LINE
  5
A5
  8
0
 10
150.8818230121085
 20
50.80795897113271
 30
0.0
 11
150.8818230121085
 21
45.59257569495584
 31
0.0
  0
LINE
  5
A6
  8
0
 10
154.8818230121085
 20
50.80795897113271
 30
0.0
 11
154.8818230121085
 21
45.59257569495583
 31
0.0
  0
LINE
  5
A7
  8
0
 10
162.6797819832412
 20
43.00999999999999
 30
0.0
 11
157.4643987070644
 21
43.00999999999999
 31
0.0
  0
LINE
  5
A8
  8
0
 10
162.6797819832412
 20
39.01000000000001
 30
0.0
 11
157.4643987070644
 21
39.01000000000001
 31
0.0
  0
LINE
  5
A9
  8
0
 10
154.8818230121085
 20
31.21204102886727
 30
0.0
 11
154.8818230121085
 21
36.42742430504414
 31
0.0
  0
LINE
  5
AA
  8
0
 10
150.8818230121085
 20
31.21204102886728
 30
0.0
 11
150.8818230121085
 21
36.42742430504416
 31
0.0
  0
LINE
  5
AB
  8
0
 10
143.0838640409758
 20
39.01000000000001
 30
0.0
 11
148.2992473171527
 21
39.01000000000001
 31
0.0
  0
LINE
  5
AC
  8
0
 10
143.0838640409758
 20
43.00999999999999
 30
0.0
 11
148.2992473171527
 21
43.00999999999999
 31
0.0
  0
ARC
  5
AD
  8
0
 10
152.8818230121085
 20
41.00999999999998
 30
0.0
 40
5.0
 50
293.5781784782016
 51
336.4218215217983
  0
ARC
  5
AE
  8
0
 10
152.8818230121085
 20
41.00999999999998
 30
0.0
 40
5.0
 50
23.57817847820182
 51
66.42182152179812
  0
ARC
  5
AF
  8
0
 10
152.8818230121085
 20
41.00999999999998
 30
0.0
 40
5.0
 50
113.5781784782015
 51
156.4218215217982
  0
ARC
  5
B0
  8
0
 10
152.8818230121085
 20
41.00999999999998
 30
0.0
 40
5.0
 50
203.5781784782017
 51
246.4218215217981
  0
LINE
  5
B1
  8
0
 10
0.0000000000000023
 20
82.0
 30
0.0
 11
0.0000000000000018
 21
64.0
 31
0.0
  0
LINE
  5
B2
  8
0
 10
8.000000000000002
 20
82.0
 30
0.0
 11
0.0000000000000017
 21
82.0
 31
0.0
  0
LINE
  5
B3
  8
0
 10
0.0
 20
0.0
 30
0.0
 11
0.0000000000000005
 21
18.0
 31
0.0
  0
LINE
  5
B4
  8
0
 10
8.0
 20
-0.0000000000000002
 30
0.0
 11
0.0
 21
0.0
 31
0.0
  0
LINE
  5
B5
  8
0
 10
196.0
 20
82.0
 30
0.0
 11
196.0
 21
64.0
 31
0.0
  0
LINE
  5
B6
  8
0
 10
188.0
 20
82.0
 30
0.0
 11
196.0
 21
82.0
 31
0.0
  0
LINE
  5
B7
  8
0
 10
196.0
 20
-0.0000000000000054
 30
0.0
 11
196.0
 21
18.0
 31
0.0
  0
LINE
  5
B8
  8
0
 10
188.0
 20
-0.0000000000000052
 30
0.0
 11
196.0
 21
-0.0000000000000054
 31
0.0
  0
CIRCLE
  5
B9
  8
0
 10
8.000000000000002
 20
64.0
 30
0.0
 40
1.75
  0
CIRCLE
  5
BA
  8
0
 10
8.0
 20
18.0
 30
0.0
 40
1.75
  0
CIRCLE
  5
BB
  8
0
 10
188.0
 20
64.0
 30
0.0
 40
1.75
  0
CIRCLE
  5
BC
  8
0
 10
188.0
 20
18.0
 30
0.0
 40
1.75
  0
ARC
  5
BD
  8
0
 10
98.0
 20
-0.0000000000000027
 30
0.0
 40
5.0
 50
0.0
 51
180.0
  0
LINE
  5
BE
  8
0
 10
20.0
 20
-0.0000000000000006
 30
0.0
 11
20.0
 21
8.0
 31
0.0
  0
LINE
  5
BF
  8
0
 10
20.0
 20
8.0
 30
0.0
 11
36.00000000000001
 21
8.0
 31
0.0
  0
LINE
  5
C0
  8
0
 10
36.00000000000001
 20
7.999999999999998
 30
0.0
 11
36.00000000000001
 21
-0.0000000000000017
 31
0.0
  0
LINE
  5
C1
  8
0
 10
188.0
 20
-0.0000000000000052
 30
0.0
 11
103.0
 21
-0.0000000000000029
 31
0.0
  0
LINE
  5
C2
  8
0
 10
93.0
 20
-0.0000000000000026
 30
0.0
 11
36.00000000000001
 21
-0.000000000000001
 31
0.0
  0
LINE
  5
C3
  8
0
 10
20.0
 20
-0.0000000000000006
 30
0.0
 11
8.000000000000014
 21
-0.0000000000000002
 31
0.0
  0
CIRCLE
  5
C4
  8
0
 10
97.88182301210851
 20
41.00999999999998
 30
0.0
 40
22.0
  0
CIRCLE
  5
C5
  8
0
 10
116.8818230121086
 20
60.00999999999998
 30
0.0
 40
1.75
  0
CIRCLE
  5
C6
  8
0
 10
78.88182301210855
 20
60.00999999999998
 30
0.0
 40
1.75
  0
CIRCLE
  5
C7
  8
0
 10
116.8818230121085
 20
22.00999999999998
 30
0.0
 40
1.75
  0
CIRCLE
  5
C8
  8
0
 10
78.88182301210855
 20
22.00999999999997
 30
0.0
 40
1.75
  0
ENDSEC
  0
EOF
